<svg width="156" height="44" viewBox="0 0 156 44" fill="none" xmlns="http://www.w3.org/2000/svg">
<path d="M18.8001 38.9601L0.0800781 28.4001V25.3281L18.8001 14.7681V18.1041L7.52008 24.3201L2.81608 26.7681V26.9601L7.52008 29.4081L18.8001 35.6241V38.9601Z" fill="black"/>
<path d="M26.7253 44.0001V9.10407H47.7493V11.8401H28.7893L29.7493 10.5441V25.4001L29.0533 24.8481H45.7093V27.5601H29.0053L29.7493 27.0321V44.0001H26.7253Z" fill="black"/>
<path d="M54.0426 44.0001V9.10407H73.1706V11.8401H55.8666L57.0426 10.6161V25.0641L55.8666 24.3681H71.6826V27.0801H55.8666L57.0426 26.4321V42.7521L55.8666 41.2881H74.4426V44.0001H54.0426Z" fill="black"/>
<path d="M84.1678 44.0001L83.1118 41.1681H89.5198C92.1438 41.1681 94.3038 40.5441 95.9998 39.2961C97.6958 38.0481 98.9598 36.3121 99.7918 34.0881C100.624 31.8641 101.04 29.2961 101.04 26.3841C101.04 23.3281 100.624 20.7281 99.7918 18.5841C98.9598 16.4241 97.6878 14.7761 95.9758 13.6401C94.2798 12.5041 92.1198 11.9361 89.4958 11.9361H82.9198L84.1678 9.10407H88.6798C93.4958 9.10407 97.2718 10.4961 100.008 13.2801C102.76 16.0481 104.136 20.4001 104.136 26.3361C104.136 30.1921 103.512 33.4321 102.264 36.0561C101.032 38.6801 99.2638 40.6641 96.9598 42.0081C94.6558 43.3361 91.9038 44.0001 88.7038 44.0001H84.1678ZM81.1678 44.0001V9.10407H84.1678V44.0001H81.1678Z" fill="black"/>
<path d="M120.749 23.6721C117.581 23.6721 115.077 23.0561 113.237 21.8241C111.413 20.5761 110.525 18.8961 110.573 16.7841H113.741C113.757 18.2241 114.389 19.3121 115.637 20.0481C116.885 20.7681 118.621 21.1201 120.845 21.1041C122.941 21.0881 124.597 20.7281 125.813 20.0241C127.029 19.3201 127.637 18.2641 127.637 16.8561C127.637 15.7201 127.045 14.8241 125.861 14.1681C124.693 13.5121 122.941 13.1841 120.605 13.1841H117.389V10.9281H120.725C122.373 10.9281 123.741 10.5601 124.829 9.82407C125.917 9.07207 126.461 8.16007 126.461 7.08807C126.461 5.77607 125.973 4.85607 124.997 4.32807C124.021 3.78407 122.605 3.51207 120.749 3.51207C118.669 3.51207 117.117 3.85607 116.093 4.54407C115.069 5.21607 114.613 6.32007 114.725 7.85607H111.485C111.405 5.60007 112.173 3.87207 113.789 2.67207C115.421 1.47207 117.749 0.87207 120.773 0.87207C123.525 0.87207 125.701 1.40807 127.301 2.48007C128.901 3.55207 129.701 5.06407 129.701 7.01607C129.701 8.34407 129.197 9.41607 128.189 10.2321C127.197 11.0481 125.853 11.5521 124.157 11.7441C126.221 11.8721 127.853 12.4001 129.053 13.3281C130.269 14.2561 130.877 15.4241 130.877 16.8321C130.877 18.9601 129.965 20.6321 128.141 21.8481C126.317 23.0641 123.853 23.6721 120.749 23.6721Z" fill="black"/>
<path d="M136.306 38.9601V35.6241L147.586 29.4081L152.29 26.9601V26.7681L147.586 24.3201L136.306 18.1041V14.7681L155.026 25.3281V28.4001L136.306 38.9601Z" fill="black"/>
</svg>
